HIERARCHY
ROOT root
{
	OFFSET 0.0000 0.0000 0.0000
	CHANNELS 6 Xposition Yposition Zposition Zrotation Xrotation Yrotation
	JOINT rfemur
	{
		OFFSET -8.5590 -9.8555 2.1513
		CHANNELS 3 Zrotation Xrotation Yrotation
		JOINT rtibia
		{
			OFFSET -7.2751 -41.2593 0.0000
			CHANNELS 3 Zrotation Xrotation Yrotation
			JOINT rfoot
			{
				OFFSET -6.5686 -37.2525 -0.0000
				CHANNELS 3 Zrotation Xrotation Yrotation
				JOINT rtoes
				{
					OFFSET 3.2326 -4.1860 10.4122
					CHANNELS 3 Zrotation Xrotation Yrotation
					End Site
					{
						OFFSET 0.0000 0.0000 0.0000
					}
				}
			}
		}
	}
	JOINT lfemur
	{
		OFFSET 8.5590 -9.8555 2.1513
		CHANNELS 3 Zrotation Xrotation Yrotation
		JOINT ltibia
		{
			OFFSET 7.2751 -41.2593 0.0000
			CHANNELS 3 Zrotation Xrotation Yrotation
			JOINT lfoot
			{
				OFFSET 6.5686 -37.2525 -0.0000
				CHANNELS 3 Zrotation Xrotation Yrotation
				JOINT ltoes
				{
					OFFSET 3.2326 -4.1860 10.4122
					CHANNELS 3 Zrotation Xrotation Yrotation
					End Site
					{
						OFFSET -0.0000 -0.0000 0.0000
					}
				}
			}
		}
	}
}
MOTION
Frames: 29
Frame Time: 0.008333
0.0000 96.9821 -24.3817 0.0000 0.0000 0.0000 -0.0000 -14.1120 -0.0000 -0.0000 -0.0000 -0.0000 -0.0000 -0.0000 -0.0000 -0.0000 -0.0000 -0.0000 -0.0000 14.1177 -0.0000 -0.0000 -0.0000 -0.0000 -0.0000 -0.0000 -0.0000 -0.0000 -0.0000 -0.0000 
0.0000 97.0141 -24.2541 0.0000 0.0000 0.0000 -0.0000 -14.0366 -0.0000 -0.0000 -0.0000 -0.0000 -0.0000 -0.0000 -0.0000 -0.0000 -0.0000 -0.0000 -0.0000 14.0601 -0.0000 -0.0000 0.0024 -0.0000 -0.0000 -0.0000 -0.0000 -0.0000 -0.0000 -0.0000 
0.0000 97.0458 -24.1269 0.0000 0.0000 0.0000 -0.0000 -13.9615 -0.0000 -0.0000 -0.0000 -0.0000 -0.0000 -0.0000 -0.0000 -0.0000 -0.0000 -0.0000 -0.0000 14.0006 -0.0000 -0.0000 0.0097 -0.0000 -0.0000 -0.0000 -0.0000 -0.0000 -0.0000 -0.0000 
0.0000 97.0772 -24.0003 0.0000 0.0000 0.0000 -0.0000 -13.8867 -0.0000 -0.0000 -0.0000 -0.0000 -0.0000 -0.0000 -0.0000 -0.0000 -0.0000 -0.0000 -0.0000 13.9390 -0.0000 -0.0000 0.0218 -0.0000 -0.0000 -0.0000 -0.0000 -0.0000 -0.0000 -0.0000 
0.0000 97.1083 -23.8742 0.0000 0.0000 0.0000 -0.0000 -13.8123 -0.0000 -0.0000 -0.0000 -0.0000 -0.0000 -0.0000 -0.0000 -0.0000 -0.0000 -0.0000 -0.0000 13.8754 -0.0000 -0.0000 0.0387 -0.0000 -0.0000 -0.0000 -0.0000 -0.0000 -0.0000 -0.0000 
0.0000 97.1648 -23.6433 0.0000 0.0000 0.0000 -0.0000 -13.6761 -0.0000 -0.0000 -0.0000 -0.0000 -0.0000 -0.0000 -0.0000 -0.0000 -0.0000 -0.0000 -0.0000 13.7532 -0.0000 -0.0000 0.0825 -0.0000 -0.0000 -0.0000 -0.0000 -0.0000 -0.0000 -0.0000 
0.0000 97.2202 -23.4142 0.0000 0.0000 0.0000 -0.0000 -13.5411 -0.0000 -0.0000 -0.0000 -0.0000 -0.0000 -0.0000 -0.0000 -0.0000 -0.0000 -0.0000 -0.0000 13.6242 -0.0000 -0.0000 0.1426 -0.0000 -0.0000 -0.0000 -0.0000 -0.0000 -0.0000 -0.0000 
0.0000 97.2747 -23.1868 0.0000 0.0000 0.0000 -0.0000 -13.4071 -0.0000 -0.0000 -0.0000 -0.0000 -0.0000 -0.0000 -0.0000 -0.0000 -0.0000 -0.0000 -0.0000 13.4885 -0.0000 -0.0000 0.2188 -0.0000 -0.0000 -0.0000 -0.0000 -0.0000 -0.0000 -0.0000 
0.0000 97.3283 -22.9610 0.0000 0.0000 0.0000 -0.0000 -13.2741 -0.0000 -0.0000 -0.0000 -0.0000 -0.0000 -0.0000 -0.0000 -0.0000 -0.0000 -0.0000 -0.0000 13.3460 -0.0000 -0.0000 0.3112 -0.0000 -0.0000 -0.0000 -0.0000 -0.0000 -0.0000 -0.0000 
0.0000 97.3808 -22.7370 0.0000 0.0000 0.0000 -0.0000 -13.1423 -0.0000 -0.0000 -0.0000 -0.0000 -0.0000 -0.0000 -0.0000 -0.0000 -0.0000 -0.0000 -0.0000 13.1969 -0.0000 -0.0000 0.4196 -0.0000 -0.0000 -0.0000 -0.0000 -0.0000 -0.0000 -0.0000 
0.0000 97.4325 -22.5147 0.0000 0.0000 0.0000 -0.0000 -13.0115 -0.0000 -0.0000 -0.0000 -0.0000 -0.0000 -0.0000 -0.0000 -0.0000 -0.0000 -0.0000 -0.0000 13.0411 -0.0000 -0.0000 0.5438 -0.0000 -0.0000 -0.0000 -0.0000 -0.0000 -0.0000 -0.0000 
0.0000 97.4832 -22.2940 0.0000 0.0000 0.0000 -0.0000 -12.8818 -0.0000 -0.0000 -0.0000 -0.0000 -0.0000 -0.0000 -0.0000 -0.0000 -0.0000 -0.0000 -0.0000 12.8787 -0.0000 -0.0000 0.6839 -0.0000 -0.0000 -0.0000 -0.0000 -0.0000 -0.0000 -0.0000 
0.0000 97.5330 -22.0750 0.0000 0.0000 0.0000 -0.0000 -12.7531 -0.0000 -0.0000 -0.0000 -0.0000 -0.0000 -0.0000 -0.0000 -0.0000 -0.0000 -0.0000 -0.0000 12.7096 -0.0000 -0.0000 0.8397 -0.0000 -0.0000 -0.0000 -0.0000 -0.0000 -0.0000 -0.0000 
0.0000 97.5820 -21.8577 0.0000 0.0000 0.0000 -0.0000 -12.6254 -0.0000 -0.0000 -0.0000 -0.0000 -0.0000 -0.0000 -0.0000 -0.0000 -0.0000 -0.0000 -0.0000 12.5340 -0.0000 -0.0000 1.0110 -0.0000 -0.0000 -0.0000 -0.0000 -0.0000 -0.0000 -0.0000 
0.0000 97.6300 -21.6420 0.0000 0.0000 0.0000 -0.0000 -12.4989 -0.0000 -0.0000 -0.0000 -0.0000 -0.0000 -0.0000 -0.0000 -0.0000 -0.0000 -0.0000 -0.0000 12.3519 -0.0000 -0.0000 1.1977 -0.0000 -0.0000 -0.0000 -0.0000 -0.0000 -0.0000 -0.0000 
0.0000 97.6772 -21.4280 0.0000 0.0000 0.0000 -0.0000 -12.3733 -0.0000 -0.0000 -0.0000 -0.0000 -0.0000 -0.0000 -0.0000 -0.0000 -0.0000 -0.0000 -0.0000 12.1633 -0.0000 -0.0000 1.3997 -0.0000 -0.0000 -0.0000 -0.0000 -0.0000 -0.0000 -0.0000 
0.0000 97.7236 -21.2156 0.0000 0.0000 0.0000 -0.0000 -12.2487 -0.0000 -0.0000 -0.0000 -0.0000 -0.0000 -0.0000 -0.0000 -0.0000 -0.0000 -0.0000 -0.0000 11.9682 -0.0000 -0.0000 1.6167 -0.0000 -0.0000 -0.0000 -0.0000 -0.0000 -0.0000 -0.0000 
0.0000 97.7691 -21.0049 0.0000 0.0000 0.0000 -0.0000 -12.1252 -0.0000 -0.0000 -0.0000 -0.0000 -0.0000 -0.0000 -0.0000 -0.0000 -0.0000 -0.0000 -0.0000 11.7667 -0.0000 -0.0000 1.8485 -0.0000 -0.0000 -0.0000 -0.0000 -0.0000 -0.0000 -0.0000 
0.0000 97.8138 -20.7958 0.0000 0.0000 0.0000 -0.0000 -12.0027 -0.0000 -0.0000 -0.0000 -0.0000 -0.0000 -0.0000 -0.0000 -0.0000 -0.0000 -0.0000 -0.0000 11.5588 -0.0000 -0.0000 2.0951 -0.0000 -0.0000 -0.0000 -0.0000 -0.0000 -0.0000 -0.0000 
0.0000 97.8577 -20.5883 0.0000 0.0000 0.0000 -0.0000 -11.8812 -0.0000 -0.0000 -0.0000 -0.0000 -0.0000 -0.0000 -0.0000 -0.0000 -0.0000 -0.0000 -0.0000 11.3446 -0.0000 -0.0000 2.3562 -0.0000 -0.0000 -0.0000 -0.0000 -0.0000 -0.0000 -0.0000 
0.0000 97.9007 -20.3824 0.0000 0.0000 0.0000 -0.0000 -11.7607 -0.0000 -0.0000 -0.0000 -0.0000 -0.0000 -0.0000 -0.0000 -0.0000 -0.0000 -0.0000 -0.0000 11.1241 -0.0000 -0.0000 2.6316 -0.0000 -0.0000 -0.0000 -0.0000 -0.0000 -0.0000 -0.0000 
0.0000 97.9431 -20.1782 0.0000 0.0000 0.0000 -0.0000 -11.6412 -0.0000 -0.0000 -0.0000 -0.0000 -0.0000 -0.0000 -0.0000 -0.0000 -0.0000 -0.0000 -0.0000 10.8974 -0.0000 -0.0000 2.9210 -0.0000 -0.0000 -0.0000 -0.0000 -0.0000 -0.0000 -0.0000 
0.0000 97.9846 -19.9755 0.0000 0.0000 0.0000 -0.0000 -11.5226 -0.0000 -0.0000 -0.0000 -0.0000 -0.0000 -0.0000 -0.0000 -0.0000 -0.0000 -0.0000 -0.0000 10.6645 -0.0000 -0.0000 3.2243 -0.0000 -0.0000 -0.0000 -0.0000 -0.0000 -0.0000 -0.0000 
0.0000 98.0254 -19.7744 0.0000 0.0000 0.0000 -0.0000 -11.4050 -0.0000 -0.0000 -0.0000 -0.0000 -0.0000 -0.0000 -0.0000 -0.0000 -0.0000 -0.0000 -0.0000 10.4255 -0.0000 -0.0000 3.5411 -0.0000 -0.0000 -0.0000 -0.0000 -0.0000 -0.0000 -0.0000 
0.0000 98.0654 -19.5748 0.0000 0.0000 0.0000 -0.0000 -11.2884 -0.0000 -0.0000 -0.0000 -0.0000 -0.0000 -0.0000 -0.0000 -0.0000 -0.0000 -0.0000 -0.0000 10.1804 -0.0000 -0.0000 3.8713 -0.0000 -0.0000 -0.0000 -0.0000 -0.0000 -0.0000 -0.0000 
0.0000 98.1047 -19.3768 0.0000 0.0000 0.0000 -0.0000 -11.1728 -0.0000 -0.0000 -0.0000 -0.0000 -0.0000 -0.0000 -0.0000 -0.0000 -0.0000 -0.0000 -0.0000 9.9294 -0.0000 -0.0000 4.2146 -0.0000 -0.0000 -0.0000 -0.0000 -0.0000 -0.0000 -0.0000 
0.0000 98.1433 -19.1803 0.0000 0.0000 0.0000 -0.0000 -11.0580 -0.0000 -0.0000 -0.0000 -0.0000 -0.0000 -0.0000 -0.0000 -0.0000 -0.0000 -0.0000 -0.0000 9.6724 -0.0000 -0.0000 4.5706 -0.0000 -0.0000 -0.0000 -0.0000 -0.0000 -0.0000 -0.0000 
0.0000 98.1812 -18.9853 0.0000 0.0000 0.0000 -0.0000 -10.9442 -0.0000 -0.0000 -0.0000 -0.0000 -0.0000 -0.0000 -0.0000 -0.0000 -0.0000 -0.0000 -0.0000 9.4095 -0.0000 -0.0000 4.9392 -0.0000 -0.0000 -0.0000 -0.0000 -0.0000 -0.0000 -0.0000 
0.0000 98.2185 -18.7919 0.0000 0.0000 0.0000 -0.0000 -10.8313 -0.0000 -0.0000 -0.0000 -0.0000 -0.0000 -0.0000 -0.0000 -0.0000 -0.0000 -0.0000 -0.0000 9.1409 -0.0000 -0.0000 5.3200 -0.0000 -0.0000 -0.0000 -0.0000 -0.0000 -0.0000 -0.0000 
